<?xml version="1.0" encoding="UTF-8" standalone="no"?>
<!DOCTYPE svg PUBLIC "-//W3C//DTD SVG 1.1//EN"
 "http://www.w3.org/Graphics/SVG/1.1/DTD/svg11.dtd">
<!-- Generated by graphviz version 2.40.1 (20161225.0304)
 -->
<!-- Title: dependencies Pages: 1 -->
<svg width="565pt" height="284pt"
 viewBox="0.00 0.00 565.00 284.00" xmlns="http://www.w3.org/2000/svg" xmlns:xlink="http://www.w3.org/1999/xlink">
<g id="graph0" class="graph" transform="scale(1 1) rotate(0) translate(4 280)">
<title>dependencies</title>
<polygon fill="#ffffff" stroke="transparent" points="-4,4 -4,-280 561,-280 561,4 -4,4"/>
<text text-anchor="start" x="257.5091" y="-42.4" font-family="sans-serif" font-weight="bold" font-size="14.00" fill="#000000">Legend</text>
<polygon fill="#ffffb3" stroke="transparent" points="44.5,-10 44.5,-30 64.5,-30 64.5,-10 44.5,-10"/>
<text text-anchor="start" x="68.129" y="-15.4" font-family="sans-serif" font-size="14.00" fill="#000000"> &#160;Declarations</text>
<polygon fill="#8dd3c7" stroke="transparent" points="157.5,-10 157.5,-30 177.5,-30 177.5,-10 157.5,-10"/>
<text text-anchor="start" x="181.2251" y="-15.4" font-family="sans-serif" font-size="14.00" fill="#000000"> &#160;Module</text>
<polygon fill="#80b1d3" stroke="transparent" points="243.5,-10 243.5,-30 263.5,-30 263.5,-10 243.5,-10"/>
<text text-anchor="start" x="267.2812" y="-15.4" font-family="sans-serif" font-size="14.00" fill="#000000"> &#160;Bootstrap</text>
<polygon fill="#fdb462" stroke="transparent" points="340.5,-10 340.5,-30 360.5,-30 360.5,-10 340.5,-10"/>
<text text-anchor="start" x="364.1732" y="-15.4" font-family="sans-serif" font-size="14.00" fill="#000000"> &#160;Providers</text>
<polygon fill="#fb8072" stroke="transparent" points="436.5,-10 436.5,-30 456.5,-30 456.5,-10 436.5,-10"/>
<text text-anchor="start" x="460.2258" y="-15.4" font-family="sans-serif" font-size="14.00" fill="#000000"> &#160;Exports</text>
<g id="clust1" class="cluster">
<title>cluster_MatFileUploadModule</title>
<polygon fill="none" stroke="#000000" stroke-dasharray="1,5" points="8,-70 8,-268 549,-268 549,-70 8,-70"/>
</g>
<g id="clust2" class="cluster">
<title>cluster_MatFileUploadModule_declarations</title>
<polygon fill="none" stroke="#000000" points="25,-78 25,-130 535,-130 535,-78 25,-78"/>
</g>
<g id="clust8" class="cluster">
<title>cluster_MatFileUploadModule_exports</title>
<polygon fill="none" stroke="#000000" points="16,-208 16,-260 541,-260 541,-208 16,-208"/>
</g>
<!-- MatFileUpload -->
<g id="node1" class="node">
<title>MatFileUpload</title>
<polygon fill="#ffffb3" stroke="#000000" points="526.541,-122 425.459,-122 425.459,-86 526.541,-86 526.541,-122"/>
<text text-anchor="middle" x="476" y="-99.8" font-family="Times,serif" font-size="14.00" fill="#000000">MatFileUpload</text>
</g>
<!-- MatFileUploadModule -->
<g id="node5" class="node">
<title>MatFileUploadModule</title>
<polygon fill="#8dd3c7" stroke="#000000" points="262.5898,-187 259.5898,-191 238.5898,-191 235.5898,-187 117.4102,-187 117.4102,-151 262.5898,-151 262.5898,-187"/>
<text text-anchor="middle" x="190" y="-164.8" font-family="Times,serif" font-size="14.00" fill="#000000">MatFileUploadModule</text>
</g>
<!-- MatFileUpload&#45;&gt;MatFileUploadModule -->
<g id="edge1" class="edge">
<title>MatFileUpload&#45;&gt;MatFileUploadModule</title>
<path fill="none" stroke="#000000" d="M493.6733,-122.0225C493.6733,-139.3734 493.6733,-163 493.6733,-163 493.6733,-163 272.7373,-163 272.7373,-163"/>
<polygon fill="#000000" stroke="#000000" points="272.7374,-159.5001 262.7373,-163 272.7373,-166.5001 272.7374,-159.5001"/>
</g>
<!-- MatFileUploadQueue -->
<g id="node2" class="node">
<title>MatFileUploadQueue</title>
<polygon fill="#ffffb3" stroke="#000000" points="407.0758,-122 268.9242,-122 268.9242,-86 407.0758,-86 407.0758,-122"/>
<text text-anchor="middle" x="338" y="-99.8" font-family="Times,serif" font-size="14.00" fill="#000000">MatFileUploadQueue</text>
</g>
<!-- MatFileUploadQueue&#45;&gt;MatFileUploadModule -->
<g id="edge2" class="edge">
<title>MatFileUploadQueue&#45;&gt;MatFileUploadModule</title>
<path fill="none" stroke="#000000" d="M268.7546,-104C261.5332,-104 256.7686,-104 256.7686,-104 256.7686,-104 256.7686,-140.8939 256.7686,-140.8939"/>
<polygon fill="#000000" stroke="#000000" points="253.2687,-140.8938 256.7686,-150.8939 260.2687,-140.8939 253.2687,-140.8938"/>
</g>
<!-- FileUploadInputFor -->
<g id="node3" class="node">
<title>FileUploadInputFor</title>
<polygon fill="#ffffb3" stroke="#000000" points="250.9846,-122 123.0154,-122 123.0154,-86 250.9846,-86 250.9846,-122"/>
<text text-anchor="middle" x="187" y="-99.8" font-family="Times,serif" font-size="14.00" fill="#000000">FileUploadInputFor</text>
</g>
<!-- FileUploadInputFor&#45;&gt;MatFileUploadModule -->
<g id="edge3" class="edge">
<title>FileUploadInputFor&#45;&gt;MatFileUploadModule</title>
<path fill="none" stroke="#000000" d="M187,-122.1061C187,-122.1061 187,-140.991 187,-140.991"/>
<polygon fill="#000000" stroke="#000000" points="183.5001,-140.9909 187,-150.991 190.5001,-140.991 183.5001,-140.9909"/>
</g>
<!-- BytesPipe -->
<g id="node4" class="node">
<title>BytesPipe</title>
<polygon fill="#ffffb3" stroke="#000000" points="105.2745,-122 32.7255,-122 32.7255,-86 105.2745,-86 105.2745,-122"/>
<text text-anchor="middle" x="69" y="-99.8" font-family="Times,serif" font-size="14.00" fill="#000000">BytesPipe</text>
</g>
<!-- BytesPipe&#45;&gt;MatFileUploadModule -->
<g id="edge4" class="edge">
<title>BytesPipe&#45;&gt;MatFileUploadModule</title>
<path fill="none" stroke="#000000" d="M77.629,-122.0225C77.629,-139.3734 77.629,-163 77.629,-163 77.629,-163 107.2468,-163 107.2468,-163"/>
<polygon fill="#000000" stroke="#000000" points="107.2469,-166.5001 117.2468,-163 107.2468,-159.5001 107.2469,-166.5001"/>
</g>
<!-- MatFileUpload  -->
<g id="node6" class="node">
<title>MatFileUpload </title>
<polygon fill="#fb8072" stroke="#000000" points="532.54,-252 427.46,-252 427.46,-216 532.54,-216 532.54,-252"/>
<text text-anchor="middle" x="480" y="-229.8" font-family="Times,serif" font-size="14.00" fill="#000000">MatFileUpload </text>
</g>
<!-- MatFileUploadModule&#45;&gt;MatFileUpload  -->
<g id="edge5" class="edge">
<title>MatFileUploadModule&#45;&gt;MatFileUpload </title>
<path fill="none" stroke="#000000" stroke-dasharray="5,2" d="M262.8655,-175C343.0063,-175 460.5767,-175 460.5767,-175 460.5767,-175 460.5767,-205.9775 460.5767,-205.9775"/>
<polygon fill="#000000" stroke="#000000" points="457.0768,-205.9774 460.5767,-215.9775 464.0768,-205.9775 457.0768,-205.9774"/>
</g>
<!-- MatFileUploadQueue  -->
<g id="node7" class="node">
<title>MatFileUploadQueue </title>
<polygon fill="#fb8072" stroke="#000000" points="409.5764,-252 268.4236,-252 268.4236,-216 409.5764,-216 409.5764,-252"/>
<text text-anchor="middle" x="339" y="-229.8" font-family="Times,serif" font-size="14.00" fill="#000000">MatFileUploadQueue </text>
</g>
<!-- MatFileUploadModule&#45;&gt;MatFileUploadQueue  -->
<g id="edge6" class="edge">
<title>MatFileUploadModule&#45;&gt;MatFileUploadQueue </title>
<path fill="none" stroke="#000000" stroke-dasharray="5,2" d="M256.1436,-187.1061C256.1436,-206.3391 256.1436,-234 256.1436,-234 256.1436,-234 258.3693,-234 258.3693,-234"/>
<polygon fill="#000000" stroke="#000000" points="258.3694,-237.5001 268.3693,-234 258.3693,-230.5001 258.3694,-237.5001"/>
</g>
<!-- FileUploadInputFor  -->
<g id="node8" class="node">
<title>FileUploadInputFor </title>
<polygon fill="#fb8072" stroke="#000000" points="249.9855,-252 118.0145,-252 118.0145,-216 249.9855,-216 249.9855,-252"/>
<text text-anchor="middle" x="184" y="-229.8" font-family="Times,serif" font-size="14.00" fill="#000000">FileUploadInputFor </text>
</g>
<!-- MatFileUploadModule&#45;&gt;FileUploadInputFor  -->
<g id="edge7" class="edge">
<title>MatFileUploadModule&#45;&gt;FileUploadInputFor </title>
<path fill="none" stroke="#000000" stroke-dasharray="5,2" d="M184,-187.1061C184,-187.1061 184,-205.991 184,-205.991"/>
<polygon fill="#000000" stroke="#000000" points="180.5001,-205.9909 184,-215.991 187.5001,-205.991 180.5001,-205.9909"/>
</g>
<!-- BytesPipe  -->
<g id="node9" class="node">
<title>BytesPipe </title>
<polygon fill="#fb8072" stroke="#000000" points="100.2747,-252 23.7253,-252 23.7253,-216 100.2747,-216 100.2747,-252"/>
<text text-anchor="middle" x="62" y="-229.8" font-family="Times,serif" font-size="14.00" fill="#000000">BytesPipe </text>
</g>
<!-- MatFileUploadModule&#45;&gt;BytesPipe  -->
<g id="edge8" class="edge">
<title>MatFileUploadModule&#45;&gt;BytesPipe </title>
<path fill="none" stroke="#000000" stroke-dasharray="5,2" d="M117.4279,-175C85.503,-175 55.121,-175 55.121,-175 55.121,-175 55.121,-205.9775 55.121,-205.9775"/>
<polygon fill="#000000" stroke="#000000" points="51.6211,-205.9774 55.121,-215.9775 58.6211,-205.9775 51.6211,-205.9774"/>
</g>
</g>
</svg>
