<?xml version="1.0" encoding="UTF-8" standalone="no"?>
<!DOCTYPE svg PUBLIC "-//W3C//DTD SVG 1.1//EN"
 "http://www.w3.org/Graphics/SVG/1.1/DTD/svg11.dtd">
<!-- Generated by graphviz version 2.40.1 (20161225.0304)
 -->
<!-- Title: dependencies Pages: 1 -->
<svg width="747pt" height="284pt"
 viewBox="0.00 0.00 747.00 284.00" xmlns="http://www.w3.org/2000/svg" xmlns:xlink="http://www.w3.org/1999/xlink">
<g id="graph0" class="graph" transform="scale(1 1) rotate(0) translate(4 280)">
<title>dependencies</title>
<polygon fill="#ffffff" stroke="transparent" points="-4,4 -4,-280 743,-280 743,4 -4,4"/>
<text text-anchor="start" x="348.5091" y="-42.4" font-family="sans-serif" font-weight="bold" font-size="14.00" fill="#000000">Legend</text>
<polygon fill="#ffffb3" stroke="transparent" points="135.5,-10 135.5,-30 155.5,-30 155.5,-10 135.5,-10"/>
<text text-anchor="start" x="159.129" y="-15.4" font-family="sans-serif" font-size="14.00" fill="#000000"> &#160;Declarations</text>
<polygon fill="#8dd3c7" stroke="transparent" points="248.5,-10 248.5,-30 268.5,-30 268.5,-10 248.5,-10"/>
<text text-anchor="start" x="272.2251" y="-15.4" font-family="sans-serif" font-size="14.00" fill="#000000"> &#160;Module</text>
<polygon fill="#80b1d3" stroke="transparent" points="334.5,-10 334.5,-30 354.5,-30 354.5,-10 334.5,-10"/>
<text text-anchor="start" x="358.2812" y="-15.4" font-family="sans-serif" font-size="14.00" fill="#000000"> &#160;Bootstrap</text>
<polygon fill="#fdb462" stroke="transparent" points="431.5,-10 431.5,-30 451.5,-30 451.5,-10 431.5,-10"/>
<text text-anchor="start" x="455.1732" y="-15.4" font-family="sans-serif" font-size="14.00" fill="#000000"> &#160;Providers</text>
<polygon fill="#fb8072" stroke="transparent" points="527.5,-10 527.5,-30 547.5,-30 547.5,-10 527.5,-10"/>
<text text-anchor="start" x="551.2258" y="-15.4" font-family="sans-serif" font-size="14.00" fill="#000000"> &#160;Exports</text>
<g id="clust1" class="cluster">
<title>cluster_MatFileUploadModule</title>
<polygon fill="none" stroke="#000000" stroke-dasharray="1,5" points="8,-70 8,-268 731,-268 731,-70 8,-70"/>
</g>
<g id="clust2" class="cluster">
<title>cluster_MatFileUploadModule_declarations</title>
<polygon fill="none" stroke="#000000" points="25,-78 25,-130 717,-130 717,-78 25,-78"/>
</g>
<g id="clust8" class="cluster">
<title>cluster_MatFileUploadModule_exports</title>
<polygon fill="none" stroke="#000000" points="16,-208 16,-260 723,-260 723,-208 16,-208"/>
</g>
<!-- BytesPipe -->
<g id="node1" class="node">
<title>BytesPipe</title>
<polygon fill="#ffffb3" stroke="#000000" points="709.2745,-122 636.7255,-122 636.7255,-86 709.2745,-86 709.2745,-122"/>
<text text-anchor="middle" x="673" y="-99.8" font-family="Times,serif" font-size="14.00" fill="#000000">BytesPipe</text>
</g>
<!-- MatFileUploadModule -->
<g id="node5" class="node">
<title>MatFileUploadModule</title>
<polygon fill="#8dd3c7" stroke="#000000" points="412.5898,-187 409.5898,-191 388.5898,-191 385.5898,-187 267.4102,-187 267.4102,-151 412.5898,-151 412.5898,-187"/>
<text text-anchor="middle" x="340" y="-164.8" font-family="Times,serif" font-size="14.00" fill="#000000">MatFileUploadModule</text>
</g>
<!-- BytesPipe&#45;&gt;MatFileUploadModule -->
<g id="edge1" class="edge">
<title>BytesPipe&#45;&gt;MatFileUploadModule</title>
<path fill="none" stroke="#000000" d="M685.879,-122.2667C685.879,-140.5552 685.879,-166 685.879,-166 685.879,-166 422.9294,-166 422.9294,-166"/>
<polygon fill="#000000" stroke="#000000" points="422.9294,-162.5001 412.9294,-166 422.9294,-169.5001 422.9294,-162.5001"/>
</g>
<!-- FileUploadInputForDirective -->
<g id="node2" class="node">
<title>FileUploadInputForDirective</title>
<polygon fill="#ffffb3" stroke="#000000" points="619.0674,-122 438.9326,-122 438.9326,-86 619.0674,-86 619.0674,-122"/>
<text text-anchor="middle" x="529" y="-99.8" font-family="Times,serif" font-size="14.00" fill="#000000">FileUploadInputForDirective</text>
</g>
<!-- FileUploadInputForDirective&#45;&gt;MatFileUploadModule -->
<g id="edge2" class="edge">
<title>FileUploadInputForDirective&#45;&gt;MatFileUploadModule</title>
<path fill="none" stroke="#000000" d="M559.0112,-122.0091C559.0112,-138.0494 559.0112,-159 559.0112,-159 559.0112,-159 422.6234,-159 422.6234,-159"/>
<polygon fill="#000000" stroke="#000000" points="422.6234,-155.5001 412.6234,-159 422.6233,-162.5001 422.6234,-155.5001"/>
</g>
<!-- MatFileUploadComponent -->
<g id="node3" class="node">
<title>MatFileUploadComponent</title>
<polygon fill="#ffffb3" stroke="#000000" points="421.3724,-122 254.6276,-122 254.6276,-86 421.3724,-86 421.3724,-122"/>
<text text-anchor="middle" x="338" y="-99.8" font-family="Times,serif" font-size="14.00" fill="#000000">MatFileUploadComponent</text>
</g>
<!-- MatFileUploadComponent&#45;&gt;MatFileUploadModule -->
<g id="edge3" class="edge">
<title>MatFileUploadComponent&#45;&gt;MatFileUploadModule</title>
<path fill="none" stroke="#000000" d="M340,-122.1061C340,-122.1061 340,-140.991 340,-140.991"/>
<polygon fill="#000000" stroke="#000000" points="336.5001,-140.9909 340,-150.991 343.5001,-140.991 336.5001,-140.9909"/>
</g>
<!-- MatFileUploadQueueComponent -->
<g id="node4" class="node">
<title>MatFileUploadQueueComponent</title>
<polygon fill="#ffffb3" stroke="#000000" points="236.9086,-122 33.0914,-122 33.0914,-86 236.9086,-86 236.9086,-122"/>
<text text-anchor="middle" x="135" y="-99.8" font-family="Times,serif" font-size="14.00" fill="#000000">MatFileUploadQueueComponent</text>
</g>
<!-- MatFileUploadQueueComponent&#45;&gt;MatFileUploadModule -->
<g id="edge4" class="edge">
<title>MatFileUploadQueueComponent&#45;&gt;MatFileUploadModule</title>
<path fill="none" stroke="#000000" d="M164.7347,-122.0225C164.7347,-139.3734 164.7347,-163 164.7347,-163 164.7347,-163 257.4477,-163 257.4477,-163"/>
<polygon fill="#000000" stroke="#000000" points="257.4478,-166.5001 267.4477,-163 257.4477,-159.5001 257.4478,-166.5001"/>
</g>
<!-- BytesPipe  -->
<g id="node6" class="node">
<title>BytesPipe </title>
<polygon fill="#fb8072" stroke="#000000" points="715.2747,-252 638.7253,-252 638.7253,-216 715.2747,-216 715.2747,-252"/>
<text text-anchor="middle" x="677" y="-229.8" font-family="Times,serif" font-size="14.00" fill="#000000">BytesPipe </text>
</g>
<!-- MatFileUploadModule&#45;&gt;BytesPipe  -->
<g id="edge5" class="edge">
<title>MatFileUploadModule&#45;&gt;BytesPipe </title>
<path fill="none" stroke="#000000" stroke-dasharray="5,2" d="M412.7483,-173C507.8283,-173 662.371,-173 662.371,-173 662.371,-173 662.371,-205.698 662.371,-205.698"/>
<polygon fill="#000000" stroke="#000000" points="658.8711,-205.698 662.371,-215.698 665.8711,-205.698 658.8711,-205.698"/>
</g>
<!-- FileUploadInputForDirective  -->
<g id="node7" class="node">
<title>FileUploadInputForDirective </title>
<polygon fill="#fb8072" stroke="#000000" points="620.5679,-252 437.4321,-252 437.4321,-216 620.5679,-216 620.5679,-252"/>
<text text-anchor="middle" x="529" y="-229.8" font-family="Times,serif" font-size="14.00" fill="#000000">FileUploadInputForDirective </text>
</g>
<!-- MatFileUploadModule&#45;&gt;FileUploadInputForDirective  -->
<g id="edge6" class="edge">
<title>MatFileUploadModule&#45;&gt;FileUploadInputForDirective </title>
<path fill="none" stroke="#000000" stroke-dasharray="5,2" d="M412.9799,-180C454.7754,-180 498.9888,-180 498.9888,-180 498.9888,-180 498.9888,-205.7181 498.9888,-205.7181"/>
<polygon fill="#000000" stroke="#000000" points="495.4889,-205.718 498.9888,-215.7181 502.4889,-205.7181 495.4889,-205.718"/>
</g>
<!-- MatFileUploadComponent  -->
<g id="node8" class="node">
<title>MatFileUploadComponent </title>
<polygon fill="#fb8072" stroke="#000000" points="419.3728,-252 248.6272,-252 248.6272,-216 419.3728,-216 419.3728,-252"/>
<text text-anchor="middle" x="334" y="-229.8" font-family="Times,serif" font-size="14.00" fill="#000000">MatFileUploadComponent </text>
</g>
<!-- MatFileUploadModule&#45;&gt;MatFileUploadComponent  -->
<g id="edge7" class="edge">
<title>MatFileUploadModule&#45;&gt;MatFileUploadComponent </title>
<path fill="none" stroke="#000000" stroke-dasharray="5,2" d="M340,-187.1061C340,-187.1061 340,-205.991 340,-205.991"/>
<polygon fill="#000000" stroke="#000000" points="336.5001,-205.9909 340,-215.991 343.5001,-205.991 336.5001,-205.9909"/>
</g>
<!-- MatFileUploadQueueComponent  -->
<g id="node9" class="node">
<title>MatFileUploadQueueComponent </title>
<polygon fill="#fb8072" stroke="#000000" points="230.4082,-252 23.5918,-252 23.5918,-216 230.4082,-216 230.4082,-252"/>
<text text-anchor="middle" x="127" y="-229.8" font-family="Times,serif" font-size="14.00" fill="#000000">MatFileUploadQueueComponent </text>
</g>
<!-- MatFileUploadModule&#45;&gt;MatFileUploadQueueComponent  -->
<g id="edge8" class="edge">
<title>MatFileUploadModule&#45;&gt;MatFileUploadQueueComponent </title>
<path fill="none" stroke="#000000" stroke-dasharray="5,2" d="M267.3698,-175C196.4136,-175 99.0153,-175 99.0153,-175 99.0153,-175 99.0153,-205.9775 99.0153,-205.9775"/>
<polygon fill="#000000" stroke="#000000" points="95.5152,-205.9775 99.0153,-215.9775 102.5152,-205.9774 95.5152,-205.9775"/>
</g>
</g>
</svg>
